<?xml version="1.0" encoding="UTF-8" standalone="no"?><!DOCTYPE svg PUBLIC "-//W3C//DTD SVG 1.1//EN" "http://www.w3.org/Graphics/SVG/1.1/DTD/svg11.dtd"><svg width="100%" height="100%" viewBox="0 0 667 667" version="1.1" xmlns="http://www.w3.org/2000/svg" xmlns:xlink="http://www.w3.org/1999/xlink" xml:space="preserve" xmlns:serif="http://www.serif.com/" style="fill-rule:evenodd;clip-rule:evenodd;stroke-linejoin:round;stroke-miterlimit:2;"><g><path d="M216.556,453.037c0.107,-0.426 0.374,-1.066 0.801,-1.92l0.64,-0.96l0.48,-0.96c1.067,-2.454 2.293,-4.748 3.68,-6.881l1.121,-1.441l1.12,-1.44c-2.881,5.548 -5.495,10.082 -7.842,13.602Zm11.042,-20.003l-0.8,1.6l0,-1.12c0,-0.533 -0.213,-1.013 -0.64,-1.44c-0.427,-0.32 -0.907,-0.48 -1.44,-0.48c-0.534,0 -0.96,0.16 -1.28,0.48c-0.427,0.427 -0.641,0.907 -0.641,1.44c0.107,0.747 -0.213,1.6 -0.96,2.561l-0.96,1.12l-0.8,1.12c-1.494,2.134 -2.614,3.894 -3.361,5.281l-0.96,1.92l-0.96,2.08l-0.16,-3.04c-0.32,-2.774 -0.587,-5.868 -0.8,-9.282c0.64,0.32 1.28,0.32 1.92,0c1.814,-0.853 3.574,-2.453 5.281,-4.8l5.921,-8.322l1.44,-2.4l1.441,-2.241l0.32,3.361c0.426,3.734 -0.214,7.361 -1.921,10.882l-0.64,1.28Zm-14.242,-8.802l2.72,-3.04c2.241,-2.56 3.894,-4.534 4.961,-5.921c1.174,-1.494 2.454,-3.521 3.841,-6.081l1.76,-3.201l1.76,-3.2c0.32,2.027 0.641,4.801 0.961,8.321l-0.32,0.32c-0.747,0.854 -1.547,1.974 -2.401,3.361l-2.08,3.68c-0.534,0.747 -1.334,1.761 -2.401,3.041l-1.28,1.44l-1.12,1.601l-1.28,2.08l-1.281,2.08c-0.96,1.494 -2.133,2.561 -3.52,3.201l-0.48,0.32c-0.32,-0.747 -0.48,-1.28 -0.48,-1.6c0,-1.601 -0.587,-2.721 -1.761,-3.361l2.401,-3.041Zm-53.609,47.529c-5.655,0.32 -10.402,0.746 -14.243,1.28c-6.081,0.747 -15.149,1.173 -27.205,1.28l-6.881,0l-6.721,0.32c-5.121,0.107 -9.601,0.374 -13.442,0.8c-2.347,-10.562 -4.268,-25.071 -5.761,-43.527l-0.96,-11.042l-0.8,-11.042c-0.854,-8.321 -1.707,-15.523 -2.561,-21.604c-0.96,-6.294 -2.24,-13.602 -3.841,-21.923l-4.16,-21.764c-3.628,-18.35 -6.081,-32.913 -7.362,-43.688c7.895,-2.774 18.297,-4.374 31.206,-4.801l8.161,-0.16l8.002,0c6.934,0 12.108,-0.053 15.522,-0.16c6.401,-0.32 15.043,-1.6 25.925,-3.84l6.401,-1.441l6.401,-1.28c4.907,-0.96 9.228,-1.653 12.962,-2.08l0.16,-0.16l0.16,0l0.48,5.281c0.107,2.027 0.16,3.84 0.16,5.441l-0.16,3.04l0,3.041c0,2.24 0.107,4.214 0.32,5.921c-2.667,-0.107 -7.308,0.32 -13.922,1.28c-5.868,0.747 -9.762,1.334 -11.682,1.76c-0.96,0.214 -3.841,0.694 -8.642,1.441l-3.2,0.64l-3.521,0.48c-2.773,0.426 -5.227,0.853 -7.361,1.28c-12.589,2.134 -18.777,3.734 -18.563,4.801c-0.534,-2.561 -2.134,-3.467 -4.801,-2.721c-2.56,0.747 -3.574,2.401 -3.04,4.961l0.16,0.8c0.106,0.427 0.373,0.907 0.8,1.441c0.106,3.734 0.96,8.588 2.56,14.562l2.08,7.041c0.747,2.774 1.281,5.228 1.601,7.362c0.106,0.746 0.587,1.44 1.44,2.08c0.747,0.533 1.547,0.8 2.4,0.8c8.215,0.213 17.71,-0.587 28.485,-2.4c4.161,-0.64 8.909,-1.494 14.243,-2.561l7.041,-1.44l7.041,-1.6l0.64,7.041l0.8,7.201c0.747,5.228 1.761,9.815 3.041,13.762l-2.24,0.321l-2.241,0.48c-2.027,0.32 -3.36,0.533 -4.001,0.64l-7.681,1.92c-2.88,0.747 -5.494,1.28 -7.841,1.6c-0.854,0.107 -2.187,0.374 -4.001,0.8l-2.56,0.481l-2.721,0.48c-0.533,-0.961 -1.333,-1.334 -2.4,-1.121c-1.067,0.107 -1.547,0.694 -1.44,1.761c-7.468,1.28 -12.856,1.44 -16.163,0.48c-0.96,-1.494 -2.347,-1.921 -4.161,-1.28l-0.64,0.32c-1.28,0.426 -2.134,1.333 -2.56,2.72c-0.534,1.387 -0.374,2.561 0.48,3.521c-0.107,0.64 -0.107,1.12 0,1.44l1.28,6.561l1.44,6.401c1.067,4.908 1.76,9.228 2.08,12.962l1.601,15.683c-0.534,1.28 -0.427,2.561 0.32,3.841c0.106,2.24 0.16,4.161 0.16,5.761c0,2.56 1.28,3.84 3.84,3.84c2.668,0.107 4.054,-1.12 4.161,-3.68c5.548,0.213 13.442,-0.587 23.684,-2.401l5.921,-1.12l5.921,-0.96c4.481,-0.533 8.482,-0.8 12.002,-0.8c1.174,-0.107 3.041,-0.053 5.601,0.16l6.401,0.32c5.441,0.213 9.655,-0.267 12.643,-1.44l0.32,5.761c0.96,8.535 1.44,16.163 1.44,22.884l0,0.16c-2.561,0.426 -8.695,1.28 -18.403,2.56c-9.069,1.28 -14.136,1.974 -15.203,2.08l-14.402,0.961Zm-86.095,-183.232c0.533,-0.747 1.12,-1.653 1.76,-2.72l1.6,-2.721c1.387,-2.56 2.561,-4.427 3.521,-5.601l3.841,-4.961l3.84,-5.12c3.094,-3.841 5.868,-7.095 8.322,-9.762l1.12,0l3.361,-0.64l3.52,-0.64l-4.321,5.281l-4.32,5.12c-2.027,2.347 -4.534,5.868 -7.522,10.562c-0.213,0.32 -0.533,0.907 -0.96,1.761l-0.64,1.28l-0.64,1.28c-1.174,2.24 -2.134,3.787 -2.881,4.641c-0.746,-0.32 -1.44,-0.214 -2.08,0.32c-0.64,0.533 -0.907,1.227 -0.8,2.08l0.16,0.64c-3.414,0.427 -6.348,0.907 -8.802,1.441l1.921,-2.241Zm45.928,-34.406c-4.588,4.908 -8.162,9.175 -10.722,12.802c-0.854,1.281 -1.92,2.988 -3.201,5.121l-3.2,5.121c-2.667,4.161 -5.121,7.308 -7.361,9.442c-0.427,0.427 -0.641,0.96 -0.641,1.6l-7.841,0.32c1.174,-1.28 2.507,-3.36 4.001,-6.241l1.76,-3.36c0.533,-1.174 1.014,-2.081 1.44,-2.721c1.387,-1.92 3.147,-4.161 5.281,-6.721l2.721,-3.201l2.72,-3.2c0.534,-0.64 1.387,-1.814 2.561,-3.521l1.28,-2.08l1.6,-1.921l9.602,-1.44Zm10.722,4.961l-5.441,6.881c-1.281,1.601 -2.614,3.521 -4.001,5.761l-1.76,2.881l-1.761,3.04c-0.106,0.107 -0.426,0.694 -0.96,1.761l-0.8,1.28l-0.8,1.44c-1.387,2.347 -2.401,3.734 -3.041,4.161c-0.64,0.427 -0.96,0.96 -0.96,1.6c-4.587,0 -8.428,0.053 -11.522,0.16c1.707,-1.814 3.521,-4.267 5.441,-7.361l2.401,-3.841l2.56,-3.841c4.267,-6.081 9.708,-12.588 16.323,-19.523l10.082,-0.96l-5.761,6.561Zm18.403,-7.681c-2.774,3.627 -5.441,7.254 -8.002,10.882l-2.08,3.04l-2.08,3.041c-1.601,2.347 -2.828,4.48 -3.681,6.401c-0.213,0.427 -0.48,1.12 -0.8,2.08l-0.48,1.28l-0.48,1.281c-0.96,2.133 -1.867,3.36 -2.721,3.68c-1.28,0.427 -1.76,1.28 -1.44,2.561c0.427,1.28 1.227,1.707 2.4,1.28c2.134,-0.64 4.001,-2.667 5.601,-6.081l0.8,-2.241l0.961,-2.08c0.64,-1.707 1.173,-2.934 1.6,-3.681c3.2,-5.654 8.375,-12.962 15.523,-21.923l5.12,-0.32l3.521,-0.16c-3.627,4.587 -6.668,8.534 -9.121,11.842c-2.027,2.88 -3.468,5.014 -4.321,6.401l-1.28,2.88l-1.441,3.041c-1.067,2.454 -2.187,4.267 -3.36,5.441c-0.64,0 -1.174,0.266 -1.601,0.8c-0.426,0.427 -0.533,1.013 -0.32,1.76l0.16,0.64c0.214,0.747 0.694,1.174 1.441,1.28c0.746,0.214 1.44,0.054 2.08,-0.48c1.814,-1.493 3.574,-3.894 5.281,-7.201l2.08,-4.161c0.747,-1.707 1.387,-3.04 1.921,-4c1.6,-2.881 3.68,-6.028 6.241,-9.442l3.68,-4.481l3.681,-4.48l10.082,-0.32c-2.987,4.374 -6.455,8.694 -10.402,12.962l-3.041,3.2c-1.066,1.174 -1.973,2.294 -2.72,3.361c-0.213,0.32 -0.587,0.96 -1.12,1.92l-0.8,1.12l-0.641,1.121c-1.28,2.027 -2.4,3.147 -3.36,3.36c-1.28,0.32 -1.707,1.174 -1.28,2.561c0.32,1.28 1.12,1.76 2.4,1.44c2.134,-0.64 4.428,-2.774 6.881,-6.401l1.601,-2.241l1.28,-2.08c1.067,-1.707 1.973,-2.88 2.72,-3.521c5.334,-5.547 9.869,-11.202 13.603,-16.962l1.28,-0.161c0.533,0 2.667,-0.32 6.401,-0.96c1.92,-0.32 3.467,-0.586 4.641,-0.8c1.707,-0.32 3.094,-0.533 4.16,-0.64c-1.6,3.414 -4.267,8.321 -8.001,14.723l-4.001,7.361c-1.6,2.774 -2.933,5.227 -4,7.361l-0.48,0.64c-0.854,0.32 -1.494,0.907 -1.921,1.761l-0.16,-0.16l-0.32,0c-2.454,0.32 -5.441,0.8 -8.961,1.44c1.173,-1.067 2.293,-2.774 3.36,-5.121l1.44,-2.881c0.427,-1.066 0.854,-1.92 1.281,-2.56c0.96,-1.494 2.347,-3.201 4.16,-5.121l2.241,-2.4l2.24,-2.561l1.44,-1.92l1.281,-1.92c1.066,-1.707 2.08,-2.988 3.04,-3.841c0.96,-0.854 0.96,-1.76 0,-2.721c-0.96,-0.96 -1.92,-0.96 -2.88,0c-0.747,0.641 -1.494,1.494 -2.241,2.561l-0.96,1.28l-0.96,1.44c-0.854,1.281 -2.08,2.774 -3.681,4.481l-1.92,2.08l-1.92,2.081c-2.027,2.56 -3.574,4.907 -4.641,7.041c-0.107,0.213 -0.32,0.64 -0.64,1.28l-0.96,1.921c-0.747,1.707 -1.441,2.933 -2.081,3.68l-0.8,-0.16l-0.48,0.16c-0.853,0.107 -1.334,0.587 -1.44,1.44l0,1.441c0,0.426 0.16,0.8 0.48,1.12l-10.562,2.4l-10.402,2.241c-8.108,1.6 -15.096,2.347 -20.963,2.24l-4.321,0l-4.641,0c1.494,-1.494 3.041,-3.894 4.641,-7.201l2.08,-4.001c0.747,-1.493 1.387,-2.667 1.921,-3.52c2.133,-3.201 4.907,-6.828 8.321,-10.882l4.481,-5.281l4.481,-5.281l6.881,-0.48Zm54.729,5.441c0,1.92 0.107,3.574 0.32,4.961l0.32,1.92l-0.16,0.16c-1.92,2.454 -3.36,4.427 -4.321,5.921c-1.493,2.24 -2.773,4.321 -3.84,6.241c-0.214,0.533 -0.534,1.44 -0.96,2.72l-0.64,1.761l-0.641,1.6c-1.066,2.881 -2.24,4.534 -3.52,4.961c-0.427,0.213 -0.747,0.48 -0.96,0.8l-0.48,-4.801c0.64,-0.427 1.066,-0.907 1.28,-1.44c1.6,-3.307 3.787,-7.468 6.561,-12.482l3.521,-6.081l3.52,-6.241Zm1.44,12.642c0.427,3.841 0.694,7.254 0.801,10.242l0.16,1.28c-0.107,0.427 -0.587,1.12 -1.441,2.08l-1.12,1.12c-0.32,0.427 -0.533,0.747 -0.64,0.961c-1.494,2.24 -3.414,4.694 -5.761,7.361l-7.521,8.801l0.16,-5.441l-0.32,-5.28c0.533,0.533 1.173,0.693 1.92,0.48c1.707,-0.641 3.094,-1.921 4.161,-3.841c0.426,-0.64 0.853,-1.494 1.28,-2.56l1.12,-2.721c1.28,-3.521 3.681,-7.681 7.201,-12.482Zm-39.526,67.852l1.92,-2.881c1.494,-2.454 2.774,-4.267 3.841,-5.441l1.76,-1.76l1.92,-1.921c1.707,-1.706 2.987,-3.093 3.841,-4.16l2.72,0.32c-2.027,2.667 -3.574,4.587 -4.64,5.761c-1.174,1.173 -2.294,2.72 -3.361,4.641l-1.44,2.56l-1.441,2.56l-1.28,1.601l-1.44,1.44c-1.067,1.174 -1.76,2.294 -2.08,3.361l-6.561,1.28l2.24,-2.401l2.08,-2.24l1.921,-2.72Zm9.121,-19.684l0.48,1.44l-1.92,1.921c-0.747,0.747 -1.227,1.28 -1.44,1.6l-1.601,1.76l-1.6,1.601c-1.173,1.387 -2.134,2.56 -2.88,3.52l-1.601,2.401l-1.6,2.4c-1.173,2.027 -2.294,3.574 -3.361,4.641l-1.28,1.44l-1.28,1.28c-0.853,1.067 -1.494,2.081 -1.92,3.041c-0.214,0.32 -0.32,0.64 -0.32,0.96l-7.842,1.44c7.362,-9.921 15.843,-19.683 25.445,-29.285l2.72,-0.16Zm-57.29,16.803c-0.746,-2.88 -1.173,-5.334 -1.28,-7.361l8.322,-0.8l-1.921,2.08l-1.28,1.6l-1.44,1.601l-1.281,1.28c-0.533,0.533 -0.906,1.067 -1.12,1.6Zm3.361,2.08c0.213,-0.426 0.587,-0.853 1.12,-1.28l0.64,-0.64l0.64,-0.64l1.441,-1.76l1.44,-1.761c1.067,-1.173 2.614,-2.773 4.641,-4.8l7.841,-1.121c-0.32,0.427 -0.854,1.014 -1.6,1.761l-0.961,0.8c-0.213,0.213 -0.373,0.373 -0.48,0.48l-3.04,3.52l-3.041,3.361c-1.066,1.174 -2.4,2.774 -4,4.801l-1.921,2.56l-1.92,2.401c-0.533,0.213 -0.96,0.48 -1.28,0.8l-2.241,-7.681c0.534,0.213 1.014,0.32 1.441,0.32c0.533,-0.107 0.96,-0.48 1.28,-1.121Zm6.881,12.803l1.6,-2.241l1.601,-2.24c0.853,-1.174 2.027,-2.507 3.52,-4.001l1.921,-1.92l1.76,-2.081c-1.494,2.134 -2.774,3.734 -3.841,4.801c-2.347,2.454 -3.68,4.268 -4,5.441c-0.214,0.747 -0.054,1.387 0.48,1.921l-3.041,0.32Zm6.081,-0.48l0.32,-0.641c0.32,-0.96 1.12,-2.08 2.401,-3.36l1.6,-1.76c0.64,-0.534 1.12,-1.014 1.44,-1.441l3.201,-4l3.2,-4.161c3.307,-4.374 6.775,-8.428 10.402,-12.162l4.641,-1.44c1.92,-0.641 3.467,-1.067 4.641,-1.281c-8.642,8.855 -16.323,17.87 -23.044,27.045c-0.534,0.747 -0.534,1.44 0,2.08l-8.802,1.121Zm62.251,-29.446c-3.094,3.414 -5.388,6.348 -6.881,8.802c-0.64,0.96 -1.441,2.027 -2.401,3.201l-2.72,3.04c-2.347,2.667 -4.001,4.801 -4.961,6.401c-0.64,-0.107 -1.174,-0.107 -1.6,0l-6.081,1.28l1.76,-2.08c0.747,-0.747 1.227,-1.387 1.44,-1.92c2.241,-3.948 4.374,-6.988 6.401,-9.122c0.854,-0.96 1.867,-2.24 3.041,-3.841l1.44,-1.92l1.6,-2.08c2.241,-0.32 4.641,-0.8 7.202,-1.44l1.76,-0.321Zm10.562,0c0.213,1.921 0.533,3.788 0.96,5.601c-0.427,0.961 -1.174,2.134 -2.241,3.521l-1.44,1.76c-0.427,0.534 -0.8,1.014 -1.12,1.441l-1.6,2.72l-1.601,2.56c-1.28,2.134 -2.453,3.841 -3.52,5.121l-2.881,3.681l-2.72,3.681c-2.134,2.773 -4.161,5.067 -6.081,6.881c-0.96,0.853 -0.96,1.76 0,2.72c0.96,0.96 1.92,1.014 2.88,0.16c4.374,-4.16 9.069,-9.921 14.083,-17.283l1.92,-3.04l1.76,-2.881c1.494,-2.347 2.828,-4.214 4.001,-5.601l0.48,1.281c-0.96,0.32 -1.44,0.906 -1.44,1.76c-0.213,2.24 -1.44,5.067 -3.681,8.481l-1.44,2.081l-1.44,1.92c-1.28,1.707 -2.134,2.881 -2.561,3.521l-2.88,4l-3.041,4.001l-1.28,2.08l-1.44,2.081c-1.28,1.707 -2.454,2.88 -3.521,3.52c-0.533,0.32 -0.853,0.747 -0.96,1.281c-0.107,0.426 0,0.906 0.32,1.44c0.213,0.427 0.587,0.747 1.12,0.96c0.534,0.107 1.067,0.053 1.601,-0.16c1.493,-0.854 3.253,-2.774 5.28,-5.761l4.161,-5.601c1.814,-2.454 3.201,-4.374 4.161,-5.761l2.4,-3.361l2.401,-3.52c2.027,-2.881 3.36,-5.388 4,-7.521l0.481,1.6l0.16,2.24c-0.107,1.28 -0.801,2.721 -2.081,4.321l-1.6,2.08c-0.64,0.747 -1.12,1.387 -1.44,1.921l-1.601,3.04l-1.6,3.041c-1.173,2.453 -2.4,4.427 -3.681,5.921l-1.12,1.44l-1.44,1.6c-1.067,1.387 -2.08,2.507 -3.04,3.361c-2.454,2.774 -4.695,4.641 -6.722,5.601l-1.12,-0.16c-1.067,-3.308 -1.867,-7.255 -2.4,-11.842l-0.64,-6.081l-0.48,-5.921c1.28,-0.534 2.08,-1.441 2.4,-2.721c0.32,-1.28 1.174,-2.614 2.56,-4.001l1.761,-1.76l1.6,-1.76c0.96,-1.174 2.027,-2.561 3.201,-4.161l2.72,-4.481c1.174,-1.707 2.667,-3.627 4.481,-5.761l2.56,-2.56l2.401,-2.721Zm-73.933,93.937c1.707,-0.427 3.467,-1.707 5.281,-3.841c0.853,-0.96 2.08,-2.294 3.68,-4.001l1.921,-1.92l1.76,-1.92c1.28,-1.494 2.614,-3.254 4.001,-5.281c0.64,3.84 1.493,8.001 2.56,12.482l-1.92,1.6l-1.76,1.44c-2.454,2.241 -5.175,4.534 -8.162,6.882l-3.68,2.72c-1.494,1.067 -2.668,1.974 -3.521,2.72c-0.427,-3.52 -0.64,-6.401 -0.64,-8.641l-0.32,-2.24l0.8,0Zm-2.561,-14.083c-0.32,0 -0.586,0.107 -0.8,0.32l-1.44,-5.601c2.134,0.32 4.801,0.32 8.001,0l-1.28,1.761l-1.44,1.6c-1.067,1.173 -2.08,1.814 -3.041,1.92Zm9.762,-4.161c0.32,-0.426 0.907,-1.066 1.76,-1.92l5.441,-0.96l-1.92,3.041c-0.747,1.173 -1.494,2.133 -2.24,2.88l-2.561,2.88l-2.72,2.721l-1.28,1.6l-1.441,1.761c-1.173,1.28 -2.24,2.027 -3.2,2.24l-0.16,0.16c-0.32,-1.814 -0.8,-3.894 -1.441,-6.241c1.921,-0.213 3.788,-1.227 5.601,-3.041c0.641,-0.64 1.387,-1.493 2.241,-2.56l0.96,-1.28l0.96,-1.281Zm22.404,20.484l-1.6,1.44l-1.601,1.44c-0.64,0.641 -1.44,1.654 -2.4,3.041l-1.12,1.44l-1.12,1.601c-0.534,0.533 -1.174,1.386 -1.921,2.56l-0.96,1.44l-0.96,1.44c-1.707,2.241 -3.467,3.414 -5.281,3.521c-0.747,0.107 -1.28,0.48 -1.6,1.12c-5.975,1.067 -8.855,2.027 -8.642,2.881c-0.106,-0.64 -0.48,-1.227 -1.12,-1.761l1.6,-2.56c0.641,-0.853 1.227,-1.547 1.761,-2.08c1.067,-1.174 2.72,-2.561 4.961,-4.161l2.56,-1.76l2.56,-1.921c1.067,-0.853 2.401,-2.027 4.001,-3.52l4.001,-3.681c0.533,0.213 1.013,0.32 1.44,0.32l5.441,-0.8Zm5.121,-0.96c3.414,-0.64 7.414,-1.547 12.002,-2.721c-1.6,1.601 -2.881,2.988 -3.841,4.161c-3.414,4.588 -7.574,9.282 -12.482,14.083c-0.427,0.426 -0.64,0.906 -0.64,1.44c-3.521,0.533 -6.614,0.96 -9.282,1.28l1.281,-1.76l1.44,-1.761c0.32,-0.64 0.853,-1.333 1.6,-2.08l1.921,-2.08l0.64,-0.961l0.64,-0.96c0.533,-0.853 0.96,-1.493 1.28,-1.92l1.44,-1.44l1.44,-1.28c1.174,-1.067 1.974,-2.134 2.401,-3.201l0.16,-0.8Zm29.285,-7.681l-0.8,0.96l-2.081,2.88l-2.08,2.881c-1.6,2.24 -3.147,4.107 -4.641,5.601c-0.747,0.853 -1.76,2.08 -3.04,3.68l-1.28,1.921l-1.601,1.76c0,0 -0.16,0.213 -0.48,0.64c-0.427,0.533 -0.8,1.014 -1.12,1.44c-1.067,1.28 -1.547,1.921 -1.44,1.921l-0.32,0.16c-4.054,-0.214 -6.721,-0.214 -8.002,0l-0.32,0l-0.48,0l-1.12,0.16c1.6,-1.707 3.734,-4.161 6.401,-7.362l3.201,-3.68l3.36,-3.681l1.44,-1.6l1.761,-1.44c1.387,-1.387 2.454,-2.561 3.2,-3.521l9.442,-2.72Zm4.481,23.844c-1.174,0.213 -2.561,0.373 -4.161,0.48c1.387,-1.067 2.774,-2.667 4.161,-4.801c-0.214,0.32 -0.32,0.693 -0.32,1.12l0,1.6c0,0.534 0.106,1.067 0.32,1.601Zm10.882,-27.845l-0.32,0.48c-0.961,1.6 -2.294,3.414 -4.001,5.441l-2.241,2.4l-2.24,2.561c-0.747,0.96 -1.76,2.827 -3.04,5.601c-0.214,0.426 -0.587,1.12 -1.121,2.08c-0.64,1.067 -1.227,2.027 -1.76,2.881c-1.814,2.56 -3.147,3.947 -4.001,4.16c-0.64,0.214 -1.067,0.587 -1.28,1.12c-0.213,0.534 -0.213,1.067 0,1.601c-2.347,0 -5.494,-0.107 -9.442,-0.32l0.321,-0.32c0.96,-1.494 2.293,-3.201 4,-5.121c1.174,-1.281 2.667,-2.827 4.481,-4.641c1.28,-1.387 2.774,-3.361 4.481,-5.921l2.08,-3.041l2.241,-3.04l1.76,-1.92l1.6,-1.921l8.482,-2.08Zm8.481,-1.6l-2.24,4.16c-0.961,1.494 -1.814,2.774 -2.561,3.841c-1.28,1.814 -3.254,4.267 -5.921,7.361l-3.2,3.521l-2.881,3.68c-0.64,0.214 -1.227,0.587 -1.76,1.121l0.96,-2.081l0.96,-1.76c0.96,-1.814 2.241,-3.734 3.841,-5.761l2.08,-2.72l2.241,-2.721c0.746,-0.96 1.6,-2.294 2.56,-4.001l1.12,-1.92l1.12,-2.08l3.681,-0.64Zm18.403,15.682l-0.8,-6.561c-0.64,-5.014 -1.387,-9.388 -2.24,-13.122c-0.214,-0.96 -0.8,-1.76 -1.761,-2.401c0.32,-1.707 -0.373,-3.093 -2.08,-4.16c-1.707,-1.067 -3.254,-0.907 -4.641,0.48l-0.96,0.96l-0.48,0.16c-5.868,0.64 -12.802,1.92 -20.804,3.841l-10.241,2.56l-10.242,2.561c-0.64,0.213 -2.134,0.693 -4.481,1.44l-1.6,0.48l-1.6,0.48l-3.361,1.12c-5.868,1.707 -9.495,2.401 -10.882,2.081c-2.24,-0.427 -3.841,-2.614 -4.801,-6.562c-0.426,-1.387 -0.747,-3.093 -0.96,-5.12l-0.32,-2.401l-0.16,-2.24c2.454,-0.32 5.228,-0.854 8.321,-1.601l4.001,-0.96l4.321,-1.12l3.36,-0.64l3.521,-0.48c2.667,-0.534 4.801,-1.28 6.401,-2.241c0.64,-0.32 1.174,-0.906 1.6,-1.76c3.308,-0.853 6.882,-3.147 10.722,-6.881c1.387,-1.387 2.934,-3.041 4.641,-4.961l1.92,-2.56l1.921,-2.241c1.173,-1.493 2.56,-3.84 4.16,-7.041l1.921,-3.681c0.747,-1.386 1.493,-2.56 2.24,-3.52c1.174,-1.707 2.081,-3.041 2.721,-4.001c1.493,-0.533 2.347,-1.707 2.56,-3.52l0.32,-1.761c0.107,-1.493 -0.427,-2.613 -1.6,-3.36l-0.16,-1.441c-0.107,-0.533 -0.16,-0.96 -0.16,-1.28c-0.32,-0.96 -0.747,-2.293 -1.28,-4l-0.801,-2.081l-0.64,-1.92c-1.173,-3.734 -2.027,-8.802 -2.56,-15.203c-0.107,-1.707 -0.854,-2.88 -2.24,-3.52c-1.387,-0.534 -2.721,-0.48 -4.001,0.16c-0.96,-0.214 -1.814,-0.16 -2.561,0.16c-1.28,0.64 -3.093,1.12 -5.441,1.44l-2.88,0.32l-2.721,0.48l-0.64,0.16c-0.533,-0.427 -1.12,-0.48 -1.76,-0.16l0,-0.48c1.92,-2.027 4.214,-4.534 6.881,-7.521l6.881,-7.842c0.747,-0.853 1.547,-1.973 2.401,-3.36l1.12,-1.761l1.12,-1.76l1.12,-1.44l1.121,-1.12c0.746,-0.96 1.226,-1.974 1.44,-3.041c0.213,-0.64 0.213,-1.333 0,-2.08l0.16,-0.64l0,-0.64l0,-0.961l0,-0.16c-0.213,-5.227 -0.64,-10.188 -1.28,-14.882c-0.534,-4.481 -0.747,-10.829 -0.64,-19.043c0,-1.601 -0.694,-2.774 -2.081,-3.521c-0.853,-2.347 -2.667,-3.041 -5.441,-2.08c-1.173,-0.214 -2.56,-0.214 -4.16,0l-2.241,0.48l-2.24,0.48c-2.347,0.427 -5.121,0.8 -8.322,1.12c0.214,-1.174 -0.213,-1.974 -1.28,-2.4c-1.067,-0.534 -1.814,-0.267 -2.24,0.8l-0.96,1.92l-9.762,0.32c-0.32,-0.64 -0.8,-1.067 -1.44,-1.28c-0.64,-0.213 -1.227,0 -1.761,0.64l-0.64,0.8l-4.321,0.16l-6.241,0.32c-0.32,-0.533 -0.746,-0.853 -1.28,-0.96c-0.64,-0.107 -1.173,0.107 -1.6,0.64l-0.32,0.48c-21.444,1.28 -40.7,3.574 -57.77,6.881c-1.814,-1.28 -3.467,-1.173 -4.961,0.321c-5.974,6.081 -12.589,14.189 -19.843,24.324l-1.761,2.56l-1.6,2.561c-1.387,2.347 -2.507,4.054 -3.36,5.12l-3.041,4.001l-3.041,4.001c-2.24,0.32 -3.2,1.6 -2.88,3.84l0,0.961l-0.16,0.64c-0.107,0.96 0.107,1.76 0.64,2.4c1.28,10.669 3.841,26.085 7.681,46.248l4.321,23.044c1.494,8.535 2.667,16.216 3.521,23.044c0.747,5.868 1.547,13.069 2.4,21.604l1.92,21.924c1.601,17.709 3.681,32.005 6.242,42.887c-0.32,1.067 -0.107,2.08 0.64,3.04l0.16,0.801c0.426,1.813 1.653,2.773 3.68,2.88c1.814,0.107 3.094,-0.64 3.841,-2.24c3.414,-0.214 8.481,-0.107 15.203,0.32l7.681,0.48c2.774,0.106 5.227,0.053 7.361,-0.16c3.307,-0.214 8.002,-0.747 14.083,-1.601l7.041,-1.12l7.041,-0.8l16.003,-1.28c5.974,-0.64 11.255,-1.227 15.842,-1.76c11.629,-1.494 22.084,-3.468 31.366,-5.921c1.493,-0.427 2.4,-1.334 2.72,-2.721l0.16,-0.8c0.214,-0.853 0.16,-1.6 -0.16,-2.24c3.628,-3.308 7.308,-8.162 11.042,-14.563c1.174,-2.134 2.614,-4.907 4.321,-8.321l2.08,-4.001l2.081,-3.841l0.96,-1.6l0.8,-1.44c0.533,-0.96 0.907,-1.707 1.12,-2.241c0.534,-1.493 0.694,-3.52 0.48,-6.081l-0.64,-6.721Zm-189.312,-142.904c-0.961,-2.241 -2.774,-4.108 -5.441,-5.601c-1.281,-0.64 -2.454,-1.067 -3.521,-1.28l-1.28,0l-1.28,0c-1.174,0 -2.027,-0.267 -2.561,-0.801c-0.96,-0.853 -1.92,-0.853 -2.88,0c-0.854,0.961 -0.854,1.921 0,2.881c1.28,1.067 3.52,1.707 6.721,1.92c1.067,0 2.24,0.374 3.52,1.12c1.494,0.854 2.401,1.761 2.721,2.721c0.533,1.173 1.44,1.6 2.72,1.28c1.281,-0.32 1.707,-1.067 1.281,-2.24Zm-0.64,-16.803c-0.854,-0.747 -1.761,-1.921 -2.721,-3.521l-1.28,-1.76l-1.28,-1.76c-0.854,-0.961 -1.761,-0.961 -2.721,0c-0.96,0.96 -1.013,1.92 -0.16,2.88c0.534,0.64 1.227,1.547 2.08,2.721l1.921,2.88c0.107,0.213 0.373,0.48 0.8,0.8l1.28,0.96c0.96,0.854 1.44,1.494 1.44,1.921c0,1.28 0.694,1.92 2.081,1.92c1.28,0 1.92,-0.64 1.92,-1.92c0,-1.067 -0.373,-2.027 -1.12,-2.881l-1.12,-1.12l-1.12,-1.12Zm14.882,-7.041c-0.747,-0.641 -1.227,-1.814 -1.44,-3.521l-0.16,-2.24c-0.107,-0.747 -0.214,-1.334 -0.32,-1.761c-0.854,-3.2 -2.934,-4.961 -6.241,-5.281c-1.281,-0.106 -1.921,0.534 -1.921,1.921c0,1.387 0.64,2.133 1.921,2.24c1.173,0.107 1.92,0.747 2.24,1.92l0.48,1.601l0.32,3.36l0.48,1.601c0.427,1.28 1.014,2.293 1.761,3.04c0.96,0.854 1.92,0.8 2.88,-0.16c0.96,-0.96 0.96,-1.867 0,-2.72Zm171.87,-8.642c-1.494,0.534 -3.041,1.92 -4.641,4.161l-0.8,1.12l-0.96,1.28c-0.854,0.96 -1.707,1.44 -2.561,1.44c-1.28,0.107 -1.92,0.801 -1.92,2.081c0,1.387 0.64,2.027 1.92,1.92c2.24,0 4.214,-1.067 5.921,-3.2l0.8,-1.281l0.96,-1.44c0.854,-1.173 1.654,-1.92 2.401,-2.24c1.173,-0.427 1.6,-1.28 1.28,-2.561c-0.427,-1.28 -1.227,-1.707 -2.4,-1.28Zm10.721,18.883c-1.066,0.214 -2.453,0.534 -4.16,0.961l-4.321,1.28l-1.6,0.48l-1.921,0.64c-1.493,0.533 -2.667,0.747 -3.52,0.64c-0.64,-0.107 -1.12,0.053 -1.44,0.48c-0.32,0.32 -0.481,0.747 -0.481,1.28c0,0.534 0.161,1.014 0.481,1.441c0.32,0.426 0.8,0.693 1.44,0.8c0.96,0.106 2.187,-0.054 3.68,-0.48l1.761,-0.64l1.76,-0.641l4.641,-1.28c1.92,-0.533 3.52,-0.907 4.801,-1.12c1.28,-0.107 1.76,-0.853 1.44,-2.24c-0.427,-1.281 -1.28,-1.814 -2.561,-1.601Zm-3.84,21.284l-3.041,-0.48c-2.667,-0.427 -4.694,-0.64 -6.081,-0.64c-1.28,0 -1.92,0.64 -1.92,1.92c0,1.387 0.64,2.081 1.92,2.081c1.387,0 3.414,0.213 6.081,0.64l3.041,0.48l3.04,0.32c1.281,0 1.921,-0.694 1.921,-2.081c0,-1.28 -0.64,-1.973 -1.921,-2.08l-3.04,-0.16Z" style="fill-rule:nonzero;"/><path d="M346.339,255.724l5.121,4.8c2.027,1.921 3.52,3.681 4.48,5.281c1.281,1.921 2.667,2.881 4.161,2.881c0.96,0.106 2.507,-0.32 4.641,-1.28l-4.641,-3.201l-4.321,-3.041l-8.801,-6.241l-0.64,0.801Zm27.524,176.35c2.988,-0.534 6.828,-1.174 11.522,-1.92c-1.707,-1.494 -3.627,-3.201 -5.761,-5.121l-2.88,-2.561l-2.881,-2.56l0,12.162Zm-97.776,15.042l14.402,8.002l1.28,-1.921l-13.762,-10.081c-5.121,-3.628 -9.815,-6.988 -14.082,-10.082c-0.214,0.747 -0.587,1.76 -1.121,3.041l-1.12,3.2l14.403,7.841Zm125.461,-20.003l-0.96,-1.12c-0.64,-0.64 -1.174,-1.014 -1.6,-1.12c-2.881,-0.214 -5.495,-1.334 -7.842,-3.361c-0.96,-0.747 -1.973,-1.76 -3.04,-3.041l-2.881,-3.2c-1.173,-1.387 -2.72,-3.041 -4.64,-4.961l-4.961,-4.801l-2.081,1.12l0.48,2.241l0.321,2.24c0.213,1.814 0.693,3.094 1.44,3.841c1.707,2.134 3.894,4.481 6.561,7.041l3.52,3.201l3.521,3.36c0.747,0.64 1.6,0.96 2.561,0.96c1.28,-0.106 2.933,-0.32 4.96,-0.64l2.721,-0.32l3.2,-0.32l-1.28,-1.12Zm-68.972,-158.907l-1.76,-1.761l-1.76,-1.44l-6.401,-4.641l-6.401,-4.64c-5.015,-3.628 -9.122,-6.775 -12.323,-9.442c-4.054,-3.414 -7.841,-3.734 -11.362,-0.96l14.883,10.722l14.723,10.561c1.493,1.067 2.933,1.814 4.32,2.241c0.747,0.213 1.707,0.373 2.881,0.48l2.88,0.16l0.32,-1.28Zm-56.809,48.168l-0.32,3.2c3.627,2.028 7.574,4.695 11.842,8.002l5.601,4.321l5.6,4.48c9.175,7.255 17.23,12.109 24.165,14.563c0,-3.307 -6.081,-9.922 -18.244,-19.844c-12.162,-9.921 -21.657,-16.002 -28.484,-18.243l-0.16,3.521Zm69.612,-55.37l-5.761,-6.241c-4.695,-4.8 -8.802,-8.641 -12.323,-11.522c-4.694,-4.054 -11.788,-4.694 -21.283,-1.92l7.521,6.081l7.361,6.081l14.723,12.002c3.734,2.987 9.015,3.574 15.843,1.761l-6.081,-6.242Zm-24.325,111.22c-5.974,-3.521 -13.922,-8.269 -23.844,-14.243l-12.002,-7.201c-4.694,-2.774 -8.855,-5.228 -12.482,-7.361c0.107,0.96 0.107,2.133 0,3.52l-0.16,1.44l-0.16,1.441c-0.107,2.133 0.693,3.734 2.4,4.801c5.975,4.054 13.283,9.068 21.924,15.042l11.202,7.681l11.522,7.682c0.533,-4.268 1.067,-8.535 1.6,-12.802Zm0.48,-7.362l0.32,-3.36c0.214,-2.881 0.374,-4.961 0.481,-6.241l-2.721,-0.961l-2.72,-0.96c-1.921,-0.64 -3.468,-1.387 -4.641,-2.24c-3.414,-2.347 -7.628,-5.388 -12.642,-9.122l-12.482,-9.441c-1.494,-1.067 -3.414,-2.454 -5.761,-4.161l-3.041,-2.08l-3.201,-2.401c-0.106,0.854 -0.213,1.814 -0.32,2.881l-0.16,2.4c-0.213,1.814 -0.426,3.201 -0.64,4.161c-0.96,3.734 0.64,6.721 4.801,8.961c7.895,4.161 19.63,10.829 35.206,20.004c0.96,0.533 2.134,1.387 3.521,2.56l1.76,1.761l2.08,1.76l0.16,-3.521Zm-52.329,31.206c-2.347,5.974 -1.653,10.668 2.081,14.082l3.04,2.721l2.881,2.72c2.24,2.134 4.267,3.841 6.081,5.121c2.987,2.24 6.828,4.907 11.522,8.001l5.761,3.841l5.921,3.841l3.2,2.24l3.361,2.56c1.494,-4.694 1.76,-8.534 0.8,-11.522c-1.067,-2.88 -3.574,-5.387 -7.521,-7.521c-12.056,-6.294 -20.644,-11.949 -25.765,-16.963c-1.28,-1.28 -3.04,-2.774 -5.281,-4.481l-3.04,-2.24l-3.041,-2.4Zm13.603,-17.603l11.682,8.001c9.815,6.721 17.549,12.109 23.204,16.163c0.32,-2.454 0.587,-4.961 0.8,-7.522l0.32,-3.04l0.32,-2.721l-12.002,-7.681l-11.682,-7.521c-9.495,-6.081 -17.336,-11.149 -23.524,-15.203c-0.32,5.121 -0.587,8.908 -0.8,11.362l11.682,8.162Zm-2.241,-112.34c-0.106,1.067 -0.213,2.347 -0.32,3.841l-0.48,3.361c-0.213,2.453 -0.373,4.48 -0.48,6.081c0,0.64 0.107,1.28 0.32,1.92c0.32,0.747 0.64,1.173 0.96,1.28c4.054,1.387 8.055,4.054 12.002,8.002l4.961,5.28c2.027,2.347 3.681,4.108 4.961,5.281c2.667,2.561 6.188,5.548 10.562,8.962l5.761,4.641c2.347,1.813 4.321,3.36 5.921,4.64c0,-0.96 0.053,-2.187 0.16,-3.68l0.32,-3.201c0.213,-2.347 0.32,-4.267 0.32,-5.761c0,-1.387 -0.587,-2.56 -1.76,-3.52c-5.975,-5.228 -13.016,-11.309 -21.124,-18.243l-10.882,-9.282l-5.601,-4.801l-5.601,-4.801Zm1.441,-14.722l-0.32,2.4c-0.214,1.707 -0.32,3.094 -0.32,4.161c0,0.96 0.106,1.814 0.32,2.56c0.213,1.067 0.533,1.761 0.96,2.081c1.707,1.6 3.84,3.467 6.401,5.601l6.561,5.281l8.801,7.201l8.802,7.041c1.6,1.387 3.627,3.201 6.081,5.441l3.361,2.88l3.36,3.041l0.32,-4.321l0.16,-4.16c0.107,-2.988 0.374,-5.495 0.8,-7.522c0.534,-2.987 -0.906,-5.334 -4.32,-7.041c-2.347,-1.174 -4.961,-2.667 -7.842,-4.481l-3.84,-2.56l-3.841,-2.561c-3.307,-2.24 -7.415,-5.121 -12.322,-8.641l-6.241,-4.481l-6.561,-4.641l-0.32,2.721Zm-15.843,164.508l-0.32,2.721c-0.32,2.133 -0.48,4 -0.48,5.6c0.106,0.961 0.32,1.974 0.64,3.041c0.533,1.174 1.12,1.974 1.76,2.4c2.347,1.814 5.388,3.948 9.122,6.402l9.121,6.241l1.601,0.96l1.44,1.12c1.173,0.747 2.08,1.547 2.72,2.4c2.027,2.881 3.681,4.801 4.961,5.761c2.134,1.707 4.694,2.347 7.681,1.921c0.427,0 1.067,0.533 1.921,1.6l1.92,2.88c0.107,0.214 0.107,0.587 0,1.121l-0.32,0.64l-0.32,0.8l-4.161,-1.6l-6.881,-2.081l-0.64,1.12l6.561,5.281c2.774,2.241 5.068,4.108 6.881,5.601l0.8,-5.761l0.801,-5.441c0.533,-4.054 0.96,-7.468 1.28,-10.241c0.107,-0.534 -0.107,-1.174 -0.64,-1.921c-0.427,-0.746 -0.96,-1.333 -1.601,-1.76l-21.603,-15.523l-21.924,-15.522l-0.32,2.24Zm4.801,-40.807c-0.534,3.627 -0.8,5.494 -0.8,5.601c-1.707,7.575 0.48,12.856 6.561,15.843c1.6,0.747 3.574,2.133 5.921,4.16l2.72,2.401c1.067,0.96 2.027,1.707 2.881,2.24c3.52,2.454 7.948,5.441 13.282,8.962l6.881,4.641l7.201,4.64l0.32,-3.52l0.321,-3.361c0.32,-2.347 0.586,-4.267 0.8,-5.761c0.426,-2.454 -0.587,-4.534 -3.041,-6.241l-16.643,-11.682l-16.483,-11.682c-1.173,-0.853 -2.72,-1.867 -4.64,-3.04l-2.561,-1.601l-2.72,-1.6Zm52.169,-35.526c1.173,-5.654 1.493,-9.815 0.96,-12.482c-0.854,-4.161 -3.787,-7.148 -8.802,-8.962l-1.12,-0.64l-0.8,-0.8l-11.362,-11.042c-4.481,-4.374 -8.268,-8.001 -11.362,-10.882c-1.387,-1.28 -3.254,-2.774 -5.601,-4.481l-3.04,-2.08l-3.361,-2.4c-0.107,1.28 -0.267,3.04 -0.48,5.281l-0.64,4.8c-0.32,3.521 -0.587,6.455 -0.8,8.802c-0.107,1.494 0.426,2.667 1.6,3.521l44.808,31.365Zm44.807,-63.051l-6.401,-0.16c-5.014,0 -9.228,0.053 -12.642,0.16c-3.734,0.107 -6.721,0.64 -8.961,1.6c-0.961,0.32 -1.867,1.014 -2.721,2.081c-0.853,0.96 -1.333,1.867 -1.44,2.72l-2.08,24.804l-1.921,24.805l-3.2,39.527l-3.361,39.686l-2.88,31.206l-3.201,31.365c-0.427,4.054 1.174,5.601 4.801,4.641c12.802,-3.414 28.965,-4.588 48.488,-3.521c19.737,1.067 36.486,-0.586 50.249,-4.961c0.96,-0.32 1.92,-0.853 2.88,-1.6c1.067,-0.853 1.654,-1.653 1.761,-2.4c0.533,-4.054 1.066,-8.962 1.6,-14.723l0.64,-7.521l0.64,-7.681l-1.76,-0.16l-1.6,-0.16c-1.067,-0.107 -1.974,-0.16 -2.721,-0.16l-25.284,2.4l-25.285,2.08c-3.414,0.32 -6.347,-0.32 -8.801,-1.92c-2.454,-1.6 -2.507,-4.054 -0.16,-7.361c0.32,-0.32 0.48,-0.8 0.48,-1.441l-0.16,-0.96l0,-0.96l0.48,-18.563l0.48,-18.563c0.427,-12.589 0.907,-22.137 1.44,-28.645l3.681,-42.728l1.76,-21.443l1.921,-21.444l-6.722,0Zm-116.66,160.988l0.961,-1.601l0.96,-1.6c0.746,-1.173 1.173,-2.24 1.28,-3.2l4.481,-34.246c1.493,-12.909 2.773,-24.378 3.84,-34.406c1.601,-15.256 3.468,-34.299 5.601,-57.13l5.441,-57.29c0.214,-2.56 0.64,-4.321 1.28,-5.281c1.067,-1.387 2.988,-2.027 5.761,-1.92c1.494,0 3.468,-0.64 5.921,-1.92l3.041,-1.761c1.174,-0.533 2.187,-0.96 3.041,-1.28c2.453,-0.64 5.494,-1.387 9.121,-2.24l4.481,-0.8l4.641,-0.961l3.84,-0.96l4.001,-0.64c0.747,-0.107 1.387,-0.16 1.92,-0.16c0.747,0.107 1.334,0.267 1.761,0.48l52.809,32.326c5.974,3.627 8.428,8.748 7.361,15.362c-0.854,5.441 -1.547,12.269 -2.08,20.484l-0.641,10.242l-0.64,10.241l-2.24,28.485l-2.4,28.485c-0.214,2.561 -0.32,5.495 -0.32,8.802l0,8.641c0,0.64 0.16,1.334 0.48,2.081c0.32,0.746 0.693,1.226 1.12,1.44l13.122,8.161c5.014,2.881 9.495,5.441 13.442,7.682c13.336,7.361 24.111,10.668 32.326,9.921c1.494,-0.213 2.56,0.214 3.2,1.28c0.427,0.854 0.587,2.081 0.481,3.681l-1.121,18.243c-0.533,7.255 -1.013,13.389 -1.44,18.403c-0.533,5.655 -1.653,9.335 -3.36,11.042c-1.601,1.707 -5.228,3.308 -10.882,4.801c-11.736,2.881 -27.152,3.734 -46.248,2.561c-6.828,-0.427 -14.509,-0.267 -23.044,0.48l-11.362,1.28l-11.362,1.44c-2.667,0.32 -5.708,0.374 -9.122,0.16l-4.641,-0.32l-4.64,-0.48c-0.534,-0.107 -1.174,-0.64 -1.921,-1.6c-0.64,-0.96 -1.013,-1.814 -1.12,-2.561c-0.32,-2.774 -1.974,-4.907 -4.961,-6.401c-1.173,-0.64 -2.56,-1.547 -4.16,-2.72l-2.081,-1.441l-2.24,-1.44l-34.726,-21.764l-4.481,-2.72l-4.481,-2.56l0,-4.801Zm19.364,-195.234c-0.747,-0.427 -1.707,-1.227 -2.881,-2.4l-1.28,-1.12l-1.6,-1.121c-3.628,-2.347 -6.135,-4.534 -7.522,-6.561c-0.746,-1.067 -1.707,-1.28 -2.88,-0.64c-1.28,0.747 -1.494,1.6 -0.64,2.561c2.133,2.987 4.107,5.12 5.921,6.401c2.347,1.493 4,2.667 4.961,3.52c0.853,0.854 2.133,1.814 3.84,2.881c0.534,0.32 1.067,0.373 1.601,0.16c0.426,-0.214 0.8,-0.534 1.12,-0.96c0.32,-0.427 0.427,-0.907 0.32,-1.441c-0.107,-0.533 -0.427,-0.96 -0.96,-1.28Zm5.121,-14.562c-2.348,-1.494 -4.161,-3.361 -5.441,-5.601c-1.387,-2.241 -2.614,-3.788 -3.681,-4.641c-1.067,-0.747 -1.974,-0.533 -2.72,0.64c-0.641,1.174 -0.427,2.134 0.64,2.881c0.64,0.426 1.333,1.28 2.08,2.56l0.8,1.6l0.96,1.28c1.814,2.028 3.574,3.574 5.281,4.641c0.534,0.32 1.067,0.427 1.6,0.32c0.427,-0.213 0.801,-0.533 1.121,-0.96c0.32,-0.427 0.426,-0.907 0.32,-1.44c-0.107,-0.533 -0.427,-0.96 -0.96,-1.28Zm7.041,-20.964c-0.427,-1.28 -1.28,-1.76 -2.561,-1.44c-1.28,0.32 -1.707,1.12 -1.28,2.4l2.24,5.601c0.641,2.347 0.534,4.214 -0.32,5.601c-0.64,1.174 -0.373,2.081 0.801,2.721c1.173,0.746 2.08,0.533 2.72,-0.64c1.174,-2.027 1.494,-4.428 0.96,-7.202c-0.32,-0.96 -0.693,-2.133 -1.12,-3.52l-1.44,-3.521Zm69.612,5.281c-0.214,0.96 -0.587,2.134 -1.12,3.521l-1.441,3.68c-0.64,1.707 -1.28,4.214 -1.92,7.522c-0.107,0.533 0,1.066 0.32,1.6c0.213,0.427 0.587,0.693 1.12,0.8c0.534,0.213 1.014,0.213 1.44,0c0.427,-0.213 0.747,-0.587 0.961,-1.12c0.64,-3.307 1.28,-5.815 1.92,-7.522l1.44,-3.68c0.534,-1.387 0.907,-2.561 1.12,-3.521c0.32,-1.28 -0.16,-2.133 -1.44,-2.56c-1.28,-0.427 -2.08,0 -2.4,1.28Zm17.923,9.602c-4.161,3.52 -6.988,6.934 -8.482,10.241c-0.213,0.641 -0.213,1.174 0,1.601c0.214,0.426 0.587,0.746 1.121,0.96c0.533,0.107 1.013,0.107 1.44,0c0.64,-0.214 1.067,-0.587 1.28,-1.12c1.174,-2.561 3.574,-5.441 7.201,-8.642c0.96,-0.853 1.014,-1.813 0.16,-2.88c-0.853,-0.96 -1.76,-1.014 -2.72,-0.16Zm15.042,15.842l-1.76,1.121c-1.493,0.853 -2.614,1.653 -3.36,2.4c-0.641,0.64 -1.227,1.6 -1.761,2.88l-0.8,1.441l-0.96,1.44c-0.32,0.533 -0.427,1.067 -0.32,1.6c0.107,0.427 0.373,0.8 0.8,1.12c0.427,0.321 0.907,0.427 1.44,0.321c0.64,0 1.12,-0.267 1.44,-0.801l0.961,-1.44l0.64,-1.44c0.64,-1.28 1.28,-2.187 1.92,-2.721c0.64,-0.533 1.654,-1.173 3.041,-1.92l1.6,-0.96l1.6,-1.12c0.96,-0.854 1.014,-1.761 0.16,-2.721c-0.853,-1.067 -1.813,-1.173 -2.88,-0.32l-1.761,1.12Z" style="fill-rule:nonzero;"/><path d="M624.627,399.108c-5.441,26.991 -21.017,43.528 -46.729,49.609c-24.43,5.654 -46.141,8.855 -65.131,9.601c-2.987,0.107 -6.774,0.374 -11.362,0.8l-5.761,0.641l-5.921,0.8l-0.32,-2.241l-0.32,-2.08c-0.213,-1.6 -0.373,-2.934 -0.48,-4.001l-2.72,-35.366c-1.067,-13.869 -1.867,-25.711 -2.401,-35.526c-0.213,-4.161 -0.32,-10.028 -0.32,-17.603l0.16,-8.961l-0.16,-8.802c-0.64,-12.589 -1.707,-28.698 -3.2,-48.328c-0.32,-3.734 -0.214,-6.028 0.32,-6.881c0.533,-0.854 2.56,-1.761 6.081,-2.721c28.165,-7.041 55.796,-10.562 82.894,-10.562c15.576,0 27.258,5.975 35.046,17.923c6.294,9.602 6.988,19.417 2.08,29.445c-1.066,2.027 -2.4,4.374 -4,7.042l-4.161,6.721c-2.027,3.307 -1.654,6.134 1.12,8.481c5.228,4.481 9.869,8.748 13.923,12.802c10.668,10.776 14.455,23.845 11.362,39.207Zm-169.79,37.287l1.281,-1.281l11.682,7.682c4.587,3.094 8.428,5.814 11.522,8.161c0.533,0.32 0.906,1.227 1.12,2.721l0.16,1.76l0.32,1.76l-1.12,0.8l-24.965,-21.603Zm16.643,-35.527l-4.641,-3.84c-3.627,-2.881 -6.561,-5.441 -8.801,-7.682c-0.854,-0.96 -1.547,-2.507 -2.08,-4.64l-0.641,-3.041l-0.8,-3.04c4.161,1.066 8.908,4.8 14.243,11.202c5.334,6.507 7.841,11.468 7.521,14.882l-4.801,-3.841Zm2.241,-13.122c-2.454,-2.347 -5.601,-5.387 -9.442,-9.121l-9.282,-8.962l0.961,-1.12c5.334,1.814 9.655,4.481 12.962,8.001c3.307,3.628 4.907,7.362 4.801,11.202Zm-20.484,-31.205c-0.32,-2.134 -0.693,-4.694 -1.12,-7.681l-0.96,-7.842l1.28,-0.64l7.841,7.521c3.201,2.988 5.815,5.495 7.842,7.522c3.307,3.414 5.227,5.974 5.761,7.681c0.426,1.707 0.32,5.281 -0.32,10.722l-4.641,-3.361l-4.481,-3.2c-3.307,-2.454 -6.134,-4.588 -8.481,-6.401c-1.494,-1.174 -2.401,-2.614 -2.721,-4.321Zm-3.04,-25.284c-0.214,-3.201 -0.481,-7.095 -0.801,-11.683l-0.32,-6.241l-0.32,-3.2l-0.16,-3.361c1.601,1.387 3.734,3.254 6.401,5.601l5.921,5.441c4.588,4.054 8.375,7.575 11.362,10.562c0.747,0.747 1.334,1.92 1.761,3.521l0.96,4.32l-1.12,0.961l-20.324,-16.163l-1.76,1.6l1.28,2.56c0.533,0.961 1.067,1.707 1.6,2.241c4.161,3.841 8.909,7.948 14.243,12.322c4.267,3.414 5.761,7.948 4.481,13.602l-5.761,-4.961l-5.601,-4.96c-4.161,-3.734 -7.788,-6.935 -10.882,-9.602c-0.32,-0.213 -0.534,-0.587 -0.64,-1.12c-0.214,-0.427 -0.32,-0.907 -0.32,-1.44Zm4,-35.527l5.121,4.161l3.841,3.521c1.6,1.493 2.934,2.667 4,3.52c4.908,3.628 6.775,8.588 5.601,14.883l-6.081,-5.281l-5.761,-5.121c-4.587,-4.054 -8.374,-7.575 -11.362,-10.562c-0.746,-0.64 -1.226,-1.867 -1.44,-3.68l-0.16,-2.401l-0.32,-2.24l1.44,-0.96l5.121,4.16Zm-7.841,-29.445c0,0 0.853,-1.067 2.56,-3.2l0.96,2.72c0.321,0.96 0.694,1.654 1.121,2.081c6.294,6.934 11.842,12.802 16.643,17.603c2.24,2.24 3.573,5.174 4,8.801c0.214,1.28 0.267,2.934 0.16,4.961l0,5.601c-0.747,-0.64 -1.547,-1.387 -2.4,-2.24l-2.241,-2.081c-1.493,-1.6 -2.827,-2.774 -4,-3.52c-1.601,-1.281 -3.734,-2.828 -6.401,-4.641l-6.401,-4.321l-0.801,-0.48l-0.64,-0.48c-0.533,-0.427 -0.853,-0.8 -0.96,-1.12c-0.427,-4.374 -0.96,-10.935 -1.6,-19.684Zm16.003,133.463c2.24,1.601 4.107,3.041 5.601,4.321c4.054,3.521 6.987,7.255 8.801,11.202l-4.801,-3.041l-4.641,-2.88c-3.733,-2.454 -6.827,-4.588 -9.281,-6.401c-0.747,-0.534 -1.174,-1.6 -1.28,-3.201l-0.16,-2.08l-0.16,-2.24l5.921,4.32Zm17.123,44.808l-4.801,-3.521l-4.961,-3.36l-4.641,-3.361c-1.92,-1.28 -3.574,-2.24 -4.961,-2.88c-4.694,-2.347 -5.814,-6.348 -3.36,-12.002l5.441,4.48l5.441,4.321c4.16,3.307 7.628,6.188 10.401,8.642c0.64,0.64 1.174,1.653 1.601,3.04l0.32,1.921l0.64,1.92l-1.12,0.8Zm-11.202,-21.284c-4.268,-3.307 -7.842,-6.187 -10.722,-8.641c-0.534,-0.427 -0.96,-1.334 -1.28,-2.721l-0.32,-1.76l-0.481,-1.92c8.429,3.307 14.776,7.094 19.044,11.362c4.267,4.16 5.921,8.268 4.961,12.322l-11.202,-8.642Zm-15.363,-168.189l1.92,0.961c1.601,0.746 2.827,1.547 3.681,2.4c2.667,2.667 5.814,5.974 9.442,9.922l9.281,10.241l1.12,1.921l-1.44,1.6c-3.947,-3.094 -8.588,-7.415 -13.922,-12.962l-6.401,-7.041c-2.454,-2.668 -4.641,-4.908 -6.561,-6.722l0.8,-1.28l2.08,0.96Zm18.883,-4.16c3.201,-0.854 5.708,0.16 7.522,3.04l4.32,6.881c1.814,2.774 3.361,5.068 4.641,6.882c0.64,0.853 1.547,1.76 2.721,2.72l3.2,2.56l1.92,-1.6l-13.762,-21.764c4.267,-2.24 7.415,-3.2 9.442,-2.88c2.027,0.427 4.267,2.4 6.721,5.921c1.707,2.56 3.787,5.814 6.241,9.762l3.2,5.281l3.361,5.28l-6.561,1.601l-6.561,1.6c-4.801,1.067 -8.962,1.974 -12.482,2.721c-0.534,0.106 -1.174,0.053 -1.921,-0.161c-0.64,-0.213 -1.173,-0.533 -1.6,-0.96c-2.774,-3.414 -6.081,-7.468 -9.922,-12.162l-4.961,-6.241l-5.28,-6.401l2.88,-0.48l2.4,-0.64c1.814,-0.32 3.308,-0.64 4.481,-0.96Zm48.009,8.481l6.401,9.922c-3.628,1.92 -6.295,2.72 -8.002,2.4c-1.813,-0.426 -3.734,-2.24 -5.761,-5.441c-1.6,-2.667 -3.574,-5.974 -5.921,-9.921l-3.04,-5.121l-2.881,-5.121c3.841,-1.6 6.455,-2.187 7.842,-1.76c1.493,0.32 3.2,2.027 5.12,5.12l6.242,9.922Zm18.723,-0.48l4.801,8.482c-3.414,1.6 -6.135,2.24 -8.162,1.92c-2.134,-0.427 -4.107,-1.974 -5.921,-4.641c-2.027,-2.774 -4.374,-6.241 -7.041,-10.402l-6.881,-10.562c5.227,-1.386 9.015,-1.653 11.362,-0.8c2.24,0.854 4.587,3.414 7.041,7.682l4.801,8.321Zm11.842,-11.202c1.707,2.454 3.68,5.548 5.921,9.282l2.88,4.801l2.721,4.8c-3.628,1.494 -6.508,1.974 -8.642,1.441c-2.24,-0.534 -4.32,-2.241 -6.241,-5.121c-1.707,-2.454 -3.68,-5.548 -5.921,-9.282l-5.761,-9.601c6.721,-2.348 11.736,-1.121 15.043,3.68Zm23.044,19.844c-3.094,1.28 -5.495,0.48 -7.202,-2.401c-1.28,-2.134 -2.827,-4.801 -4.64,-8.001l-2.241,-4.321c-1.067,-1.814 -1.92,-3.307 -2.56,-4.481c4.267,1.707 7.735,4.428 10.402,8.162c1.173,1.493 2.293,3.254 3.36,5.281l2.881,5.761Zm11.042,2.4c-3.628,-0.213 -5.921,-3.041 -6.882,-8.481l6.882,8.481Zm25.764,75.373l-3.521,-2.881l1.281,-1.76l1.12,-1.6c13.015,-16.643 13.442,-33.606 1.28,-50.889l-4.161,-6.241l-4.16,-6.241c-17.283,-23.791 -36.167,-37.713 -56.65,-41.767l-0.8,-0.32l-0.8,-0.64l-31.046,0l-6.241,1.6l-6.401,1.28l-27.525,5.761l-27.524,5.601c-4.588,1.067 -7.468,2.507 -8.642,4.321c-1.173,1.813 -1.387,5.014 -0.64,9.601l1.28,8.322c0.427,3.2 0.747,6.028 0.96,8.481l1.601,27.045c0.64,10.989 1.333,20.003 2.08,27.045c4.481,43.634 6.134,76.973 4.961,100.017c-0.32,7.895 2.294,13.015 7.841,15.362c0.64,0.321 1.334,0.854 2.081,1.601l1.92,1.92l10.242,9.282c3.947,3.734 7.414,6.774 10.402,9.121c1.173,0.96 2.56,1.707 4.16,2.241c1.814,0.533 3.254,0.586 4.321,0.16c7.255,-2.667 16.91,-4.214 28.965,-4.641c10.668,-0.32 22.564,-1.92 35.686,-4.801c5.121,-1.067 10.989,-2.454 17.603,-4.161l17.443,-4.48c21.23,-5.655 35.633,-19.257 43.208,-40.807c9.388,-26.778 3.734,-48.382 -16.963,-64.812l-3.361,-2.72Zm-53.129,55.85l-13.282,-8.482c-0.961,-0.64 -2.241,-1.28 -3.841,-1.92l-2.08,-0.96l-2.241,-0.801c0.427,-2.347 1.44,-3.947 3.041,-4.8c1.6,-0.961 3.414,-0.907 5.441,0.16c10.135,5.121 18.243,9.388 24.324,12.802c3.307,1.92 5.067,3.627 5.281,5.121c0.213,1.387 -0.907,3.894 -3.361,7.521l-13.282,-8.641Zm-3.361,16.642l-0.64,-1.44c-0.533,-1.173 -1.12,-2.027 -1.76,-2.56c-0.64,-0.64 -1.6,-1.227 -2.881,-1.761l-1.6,-0.8l-1.44,-0.64c-4.267,-1.92 -6.935,-3.894 -8.001,-5.921c-1.174,-2.027 -1.494,-5.601 -0.961,-10.722c10.349,6.401 20.697,12.802 31.046,19.204c-4.161,4.267 -8.482,6.294 -12.963,6.081l-0.8,-1.441Zm-16.803,-5.441l17.443,6.882l-8.481,2.24l-4.481,1.12l-4.481,1.12l0,-11.362Zm3.361,-37.286l-2.56,0.96c-2.134,0.747 -3.894,1.174 -5.281,1.28c-4.268,0.427 -6.295,3.041 -6.081,7.842l1.92,39.527c0.213,4.054 0.96,6.614 2.24,7.681c1.387,0.96 4.108,1.013 8.162,0.16l21.283,-4.641c6.402,-1.387 11.896,-4.854 16.483,-10.402c4.481,-5.547 6.668,-11.682 6.561,-18.403l-0.16,-0.96l-0.16,-1.28c-0.106,-1.067 -0.32,-1.974 -0.64,-2.721c-2.133,-6.828 -7.468,-12.428 -16.003,-16.803c-8.534,-4.374 -16.216,-5.441 -23.044,-3.2l-2.72,0.96Zm-4.641,-67.852l2.081,-0.16c1.707,0.107 3.093,0.374 4.16,0.8c2.881,1.174 6.295,2.721 10.242,4.641l10.242,4.961c4.374,2.134 5.387,5.281 3.04,9.442l-16.482,-6.561l-16.163,-6.882c-0.534,-0.213 -1.067,-0.693 -1.601,-1.44c-0.533,-0.747 -0.8,-1.44 -0.8,-2.08c0.107,-0.427 0.48,-0.96 1.121,-1.6c0.746,-0.641 1.386,-0.961 1.92,-0.961l2.24,-0.16Zm29.765,6.401c-1.92,-0.853 -4.587,-2.08 -8.001,-3.68l-3.841,-1.76l-4,-1.761c8.001,-2.987 13.282,-0.587 15.842,7.201Zm-13.602,20.644c-2.027,-1.067 -4.481,-2.187 -7.361,-3.361l-3.841,-1.44l-3.841,-1.44c-4.267,-1.6 -5.707,-4.801 -4.32,-9.602l15.362,6.401c6.295,2.561 11.469,4.695 15.523,6.402c-3.734,4.054 -7.575,5.067 -11.522,3.04Zm-19.683,-3.201l3.84,1.921l4.001,1.92c3.307,1.707 6.134,3.147 8.481,4.321c-4.907,1.067 -10.348,2.294 -16.322,3.681l0,-11.843Zm-0.961,20.164c11.522,-2.667 22.404,-5.548 32.646,-8.642c6.721,-2.027 10.349,-6.347 10.882,-12.962c0.64,-6.828 0.32,-13.335 -0.96,-19.523c-1.067,-5.334 -3.254,-9.015 -6.561,-11.042c-3.414,-2.134 -8.749,-3.094 -16.003,-2.881c-0.96,0.214 -2.561,0.427 -4.801,0.641l-2.88,0.48l-3.041,0.32c-5.228,0.747 -9.815,1.387 -13.762,1.92c-3.948,0.533 -5.815,2.667 -5.601,6.401l1.12,19.684l1.44,19.843c0.32,5.014 2.827,6.934 7.521,5.761Zm-118.74,-95.216l-2.4,0c-1.707,0 -3.201,-0.214 -4.481,-0.641c-0.32,-0.106 -0.854,-0.16 -1.6,-0.16l-1.921,-0.32c-1.707,-0.32 -2.667,-0.8 -2.88,-1.44c-0.214,-0.64 -0.587,-1.067 -1.12,-1.28c-0.427,-0.213 -0.907,-0.267 -1.441,-0.16c-0.533,0.213 -0.906,0.533 -1.12,0.96c-0.32,0.427 -0.373,0.907 -0.16,1.44c0.534,1.707 1.44,2.881 2.721,3.521c0.533,0.213 1.226,0.373 2.08,0.48l1.28,0.16l4.961,1.28c1.174,0.214 2.56,0.32 4.161,0.32l2.08,-0.16l2.08,0c1.281,0 1.974,-0.693 2.081,-2.08c0,-1.387 -0.694,-2.027 -2.081,-1.92l-2.24,0Zm-2.24,12.162c-0.747,0.106 -1.601,0.373 -2.561,0.8l-2.24,1.28c-1.92,1.067 -3.467,1.707 -4.641,1.92c-0.64,0.107 -1.067,0.374 -1.28,0.8c-0.214,0.427 -0.267,0.907 -0.16,1.441c0.213,0.533 0.48,0.96 0.8,1.28c0.533,0.32 1.067,0.427 1.6,0.32c1.28,-0.107 2.881,-0.747 4.801,-1.92l2.24,-1.281c0.854,-0.32 1.654,-0.586 2.401,-0.8c1.28,-0.213 1.76,-0.96 1.44,-2.24c-0.32,-1.28 -1.12,-1.814 -2.4,-1.6Zm5.281,17.603c-0.214,0.533 -0.961,1.12 -2.241,1.76l-1.76,0.48c-0.534,0.32 -0.96,0.534 -1.28,0.64c-0.854,0.64 -1.601,1.494 -2.241,2.561l-0.32,0.8l-0.32,0.64l-2.4,2.08c-0.214,0.427 -0.267,0.907 -0.16,1.44c0.106,0.534 0.373,0.961 0.8,1.281c0.533,0.32 1.067,0.373 1.6,0.16c1.6,-0.427 2.774,-1.334 3.521,-2.721l0.48,-0.96l0.48,-0.8c0.32,-0.64 0.8,-1.12 1.44,-1.44l1.92,-0.8l1.761,-0.961c1.387,-0.853 2.24,-1.92 2.56,-3.2c0.427,-1.174 0,-1.974 -1.28,-2.401c-1.387,-0.32 -2.24,0.16 -2.56,1.441Zm184.031,-55.05l-2.56,2.561c-2.027,1.92 -3.894,3.36 -5.601,4.32l-0.48,-0.32c-1.067,-0.64 -1.921,-0.373 -2.561,0.8c-0.747,1.174 -0.533,2.081 0.64,2.721c1.387,0.96 2.614,1.227 3.681,0.8c1.067,-0.533 2.454,-1.44 4.161,-2.72c1.28,-0.961 2.667,-2.241 4.16,-3.841l3.841,-4.001c0.427,-0.426 0.64,-0.907 0.64,-1.44c-0.106,-0.533 -0.32,-0.96 -0.64,-1.28c-0.427,-0.427 -0.907,-0.64 -1.44,-0.64c-0.534,-0.107 -1.014,0.053 -1.44,0.48l-2.401,2.56Zm17.283,15.843c-2.667,-0.107 -5.014,0.533 -7.041,1.92c-0.533,0.427 -1.174,0.8 -1.92,1.12l-2.081,0.801c-1.707,0.64 -2.987,1.333 -3.84,2.08c-0.427,0.427 -0.64,0.907 -0.64,1.44c0.106,0.534 0.32,0.96 0.64,1.28c0.426,0.427 0.906,0.641 1.44,0.641c0.533,0.106 1.013,-0.054 1.44,-0.481c0.64,-0.64 1.654,-1.173 3.041,-1.6l1.76,-0.48c0.64,-0.32 1.173,-0.587 1.6,-0.8c1.921,-1.28 3.788,-1.92 5.601,-1.92c1.28,0 1.92,-0.694 1.92,-2.081c0,-1.28 -0.64,-1.92 -1.92,-1.92Zm6.401,18.723c-1.173,0 -2.187,0.054 -3.04,0.16c-0.64,0.107 -1.494,0.32 -2.561,0.64l-1.28,0.32l-1.28,0.32c-0.64,0.107 -1.067,0.427 -1.28,0.961c-0.214,0.426 -0.267,0.906 -0.16,1.44c0.106,0.533 0.373,0.96 0.8,1.28c0.533,0.32 1.067,0.427 1.6,0.32l1.28,-0.32l1.12,-0.48c1.067,-0.32 1.921,-0.48 2.561,-0.48l2.56,-0.16l2.721,0.16c1.28,0 1.92,-0.694 1.92,-2.08c0,-1.281 -0.64,-1.921 -1.92,-1.921l-3.041,-0.16Z" style="fill-rule:nonzero;"/></g></svg>